<?xml version="1.0" encoding="utf-8"?>
<!-- Generator: Adobe Illustrator 26.0.2, SVG Export Plug-In . SVG Version: 6.00 Build 0)  -->
<svg version="1.1" id="Layer_1" xmlns="http://www.w3.org/2000/svg" xmlns:xlink="http://www.w3.org/1999/xlink" x="0px" y="0px"
	 viewBox="0 0 600 120" style="enable-background:new 0 0 600 120;" xml:space="preserve">
<style type="text/css">
	.st0{fill:#1C75BC;}
	.st1{fill:none;}
	.st2{font-size:41.37px;font-family:Arial-BoldMT, Arial;font-weight:700;}
	.st3{font-size:41.3731px;}
	.st4{fill:none;stroke:#000000;stroke-width:0.75;stroke-miterlimit:10;}
	.st5{fill:none;stroke:#000000;stroke-width:0.5;stroke-miterlimit:10;}
	.st6{fill:none;stroke:#000000;stroke-width:0.25;stroke-miterlimit:10;}
</style>
<circle class="st0" cx="301.4" cy="52.62" r="4.23"/>
<rect x="156.44" y="37.76" class="st1" width="287.13" height="45.97"/>
<text id="Text" transform="matrix(1 0 0 1 158.5677 67.3843)" class="st2 st3">Spacestagram</text>
<g id="Circles">
	<circle class="st0" cx="309.48" cy="73.68" r="4.23"/>
	<circle class="st0" cx="313.04" cy="91.87" r="4.23"/>
	<circle class="st0" cx="290.41" cy="33" r="4.23"/>
	<circle class="st0" cx="277.57" cy="18.16" r="4.23"/>
	<circle class="st0" cx="258.69" cy="8.12" r="4.23"/>
	<circle class="st0" cx="253.08" cy="25.72" r="4.23"/>
	<circle class="st0" cx="255.96" cy="44.17" r="4.23"/>
	<circle class="st0" cx="262.67" cy="64.98" r="4.23"/>
	<circle class="st0" cx="271.13" cy="81.12" r="4.23"/>
	<circle class="st0" cx="307.86" cy="111.88" r="4.23"/>
</g>
<g id="Satelite">
	<rect x="283.12" y="99.07" transform="matrix(-0.9668 0.2557 -0.2557 -0.9668 589.9106 134.9576)" width="6.12" height="13.5"/>
	<rect x="272.29" y="98.18" transform="matrix(0.2557 0.9668 -0.9668 0.2557 306.4019 -188.0984)" width="6.12" height="13.5"/>
	<rect x="292.08" y="93.17" transform="matrix(0.2557 0.9668 -0.9668 0.2557 316.2893 -210.955)" width="6.12" height="13.5"/>
	<path class="st4" d="M288.3,88.59c0,0-6.06-4.13-12.77,3.28"/>
	<path class="st5" d="M286.73,91.99c0,0-4.06-2.57-7.7,1.73"/>
	<path class="st6" d="M285.05,94.05c0,0-1.63-0.75-3.26,0.8"/>
	<path d="M287.44,98.32l0.8-2.75c0,0-4.94-1.8-8.92,2.24l2.15,2.06l5.78-1.5"/>
</g>
</svg>
